# xmcd
# 
# Track frame offsets:
#     150
#     25725
#     44098
#     59996
#     84297
#     107020
#     125320
#     147146
#     174372
#     195899
#     207597
#     219672
#     233098
# 
# Disc length: 3258
# 
# Revision: 2
# Processed by: cddbd v1.5.2PL0 Copyright (c) Steve Scherf et al.
# Submitted via: fre:ac v1.0.17
# 
DISCID=b70cb80d
DTITLE=Rob Tognoni - Energy red
DYEAR=2012
DGENRE=Blues
TTITLE0=Take you home now
TTITLE1=Boogie don't need no rest
TTITLE2=Fire from hell
TTITLE3=Someone to love me
TTITLE4=Don't love
TTITLE5=Queensland heat
TTITLE6=Blue butterfly (seven reasons)
TTITLE7=Can't you see
TTITLE8=I remember when i was young
TTITLE9=As tears go by
TTITLE10=Better be home soon
TTITLE11=So fuckin' bored
TTITLE12=I wanna play an Iggy Pop record today
EXTD=
EXTT0=
EXTT1=
EXTT2=
EXTT3=
EXTT4=
EXTT5=
EXTT6=
EXTT7=
EXTT8=
EXTT9=
EXTT10=
EXTT11=
EXTT12=
PLAYORDER=
